# Blender v2.80 (sub 75) OBJ File: 'crystalls.blend'
# www.blender.org
mtllib crystalls.mtl
o Icosphere
v 0.000000 -4.077147 0.000000
v 1.237356 -0.764738 0.898981
v -0.472618 -0.764738 1.454594
v -1.529467 -0.764738 0.000000
v -0.472618 -0.764738 -1.454594
v 1.237356 -0.764738 -0.898981
v 0.472618 6.475710 1.454594
v -1.237356 6.475710 0.898981
v -1.237356 6.475710 -0.898981
v 0.472618 6.475710 -1.454594
v 1.529467 6.475710 0.000000
v 0.000000 10.102014 0.000000
vt 0.818181 0.000000
vt 0.727272 0.157461
vt 0.909090 0.157461
vt 0.636363 0.000000
vt 0.545454 0.157461
vt 0.090909 0.000000
vt 0.000000 0.157461
vt 0.181818 0.157461
vt 0.272727 0.000000
vt 0.363636 0.157461
vt 0.454545 0.000000
vt 0.636363 0.314921
vt 0.818181 0.314921
vt 0.090909 0.314921
vt 0.272727 0.314921
vt 0.454545 0.314921
vt 1.000000 0.314921
vt 0.727272 0.472382
vt 0.909090 0.472382
vt 0.181818 0.472382
vt 0.363636 0.472382
vt 0.545454 0.472382
vn 0.2895 -0.3499 0.8909
vn 0.9368 -0.3499 0.0000
vn -0.7579 -0.3499 0.5506
vn -0.7579 -0.3499 -0.5506
vn 0.2895 -0.3499 -0.8909
vn 0.9992 -0.0403 0.0000
vn 0.3088 -0.0403 0.9503
vn -0.8084 -0.0403 0.5873
vn -0.8084 -0.0403 -0.5873
vn 0.3088 -0.0403 -0.9503
vn 0.8084 0.0403 0.5873
vn -0.3088 0.0403 0.9503
vn -0.9992 0.0403 0.0000
vn -0.3088 0.0403 -0.9503
vn 0.8084 0.0403 -0.5873
vn 0.7657 0.3229 0.5563
vn -0.2925 0.3229 0.9001
vn -0.9464 0.3229 0.0000
vn -0.2925 0.3229 -0.9001
vn 0.7657 0.3229 -0.5563
usemtl Material.002
s off
f 1/1/1 2/2/1 3/3/1
f 2/2/2 1/4/2 6/5/2
f 1/6/3 3/7/3 4/8/3
f 1/9/4 4/8/4 5/10/4
f 1/11/5 5/10/5 6/5/5
f 2/2/6 6/5/6 11/12/6
f 3/3/7 2/2/7 7/13/7
f 4/8/8 3/7/8 8/14/8
f 5/10/9 4/8/9 9/15/9
f 6/5/10 5/10/10 10/16/10
f 2/2/11 11/12/11 7/13/11
f 3/3/12 7/13/12 8/17/12
f 4/8/13 8/14/13 9/15/13
f 5/10/14 9/15/14 10/16/14
f 6/5/15 10/16/15 11/12/15
f 7/13/16 11/12/16 12/18/16
f 8/17/17 7/13/17 12/19/17
f 9/15/18 8/14/18 12/20/18
f 10/16/19 9/15/19 12/21/19
f 11/12/20 10/16/20 12/22/20
o Icosphere.001
v -3.500000 -4.077147 0.000000
v -2.262644 -0.764738 0.898981
v -3.972618 -0.764738 1.454594
v -5.029467 -0.764738 0.000000
v -3.972618 -0.764738 -1.454594
v -2.262644 -0.764738 -0.898981
v -3.027382 6.475710 1.454594
v -4.737356 6.475710 0.898981
v -4.737356 6.475710 -0.898981
v -3.027382 6.475710 -1.454594
v -1.970533 6.475710 0.000000
v -3.500000 10.102014 0.000000
vt 0.818181 0.000000
vt 0.727272 0.157461
vt 0.909090 0.157461
vt 0.636363 0.000000
vt 0.545454 0.157461
vt 0.090909 0.000000
vt 0.000000 0.157461
vt 0.181818 0.157461
vt 0.272727 0.000000
vt 0.363636 0.157461
vt 0.454545 0.000000
vt 0.636363 0.314921
vt 0.818181 0.314921
vt 0.090909 0.314921
vt 0.272727 0.314921
vt 0.454545 0.314921
vt 1.000000 0.314921
vt 0.727272 0.472382
vt 0.909090 0.472382
vt 0.181818 0.472382
vt 0.363636 0.472382
vt 0.545454 0.472382
vn 0.2895 -0.3499 0.8909
vn 0.9368 -0.3499 0.0000
vn -0.7579 -0.3499 0.5506
vn -0.7579 -0.3499 -0.5506
vn 0.2895 -0.3499 -0.8909
vn 0.9992 -0.0403 0.0000
vn 0.3088 -0.0403 0.9503
vn -0.8084 -0.0403 0.5873
vn -0.8084 -0.0403 -0.5873
vn 0.3088 -0.0403 -0.9503
vn 0.8084 0.0403 0.5873
vn -0.3088 0.0403 0.9503
vn -0.9992 0.0403 0.0000
vn -0.3088 0.0403 -0.9503
vn 0.8084 0.0403 -0.5873
vn 0.7657 0.3229 0.5563
vn -0.2925 0.3229 0.9001
vn -0.9464 0.3229 0.0000
vn -0.2925 0.3229 -0.9001
vn 0.7657 0.3229 -0.5563
usemtl Material.003
s off
f 13/23/21 14/24/21 15/25/21
f 14/24/22 13/26/22 18/27/22
f 13/28/23 15/29/23 16/30/23
f 13/31/24 16/30/24 17/32/24
f 13/33/25 17/32/25 18/27/25
f 14/24/26 18/27/26 23/34/26
f 15/25/27 14/24/27 19/35/27
f 16/30/28 15/29/28 20/36/28
f 17/32/29 16/30/29 21/37/29
f 18/27/30 17/32/30 22/38/30
f 14/24/31 23/34/31 19/35/31
f 15/25/32 19/35/32 20/39/32
f 16/30/33 20/36/33 21/37/33
f 17/32/34 21/37/34 22/38/34
f 18/27/35 22/38/35 23/34/35
f 19/35/36 23/34/36 24/40/36
f 20/39/37 19/35/37 24/41/37
f 21/37/38 20/36/38 24/42/38
f 22/38/39 21/37/39 24/43/39
f 23/34/40 22/38/40 24/44/40
o Icosphere.003
v 7.000000 -4.077147 0.000000
v 8.237356 -0.764738 0.898981
v 6.527381 -0.764738 1.454594
v 5.470533 -0.764738 0.000000
v 6.527381 -0.764738 -1.454594
v 8.237356 -0.764738 -0.898981
v 7.472619 6.475710 1.454594
v 5.762644 6.475710 0.898981
v 5.762644 6.475710 -0.898981
v 7.472619 6.475710 -1.454594
v 8.529467 6.475710 0.000000
v 7.000000 10.102014 0.000000
vt 0.818181 0.000000
vt 0.727272 0.157461
vt 0.909090 0.157461
vt 0.636363 0.000000
vt 0.545454 0.157461
vt 0.090909 0.000000
vt 0.000000 0.157461
vt 0.181818 0.157461
vt 0.272727 0.000000
vt 0.363636 0.157461
vt 0.454545 0.000000
vt 0.636363 0.314921
vt 0.818181 0.314921
vt 0.090909 0.314921
vt 0.272727 0.314921
vt 0.454545 0.314921
vt 1.000000 0.314921
vt 0.727272 0.472382
vt 0.909090 0.472382
vt 0.181818 0.472382
vt 0.363636 0.472382
vt 0.545454 0.472382
vn 0.2895 -0.3499 0.8909
vn 0.9368 -0.3499 0.0000
vn -0.7579 -0.3499 0.5506
vn -0.7579 -0.3499 -0.5506
vn 0.2895 -0.3499 -0.8909
vn 0.9992 -0.0403 0.0000
vn 0.3088 -0.0403 0.9503
vn -0.8084 -0.0403 0.5873
vn -0.8084 -0.0403 -0.5873
vn 0.3088 -0.0403 -0.9503
vn 0.8084 0.0403 0.5873
vn -0.3088 0.0403 0.9503
vn -0.9992 0.0403 0.0000
vn -0.3088 0.0403 -0.9503
vn 0.8084 0.0403 -0.5873
vn 0.7657 0.3229 0.5563
vn -0.2925 0.3229 0.9001
vn -0.9464 0.3229 0.0000
vn -0.2925 0.3229 -0.9001
vn 0.7657 0.3229 -0.5563
usemtl Material.006
s off
f 25/45/41 26/46/41 27/47/41
f 26/46/42 25/48/42 30/49/42
f 25/50/43 27/51/43 28/52/43
f 25/53/44 28/52/44 29/54/44
f 25/55/45 29/54/45 30/49/45
f 26/46/46 30/49/46 35/56/46
f 27/47/47 26/46/47 31/57/47
f 28/52/48 27/51/48 32/58/48
f 29/54/49 28/52/49 33/59/49
f 30/49/50 29/54/50 34/60/50
f 26/46/51 35/56/51 31/57/51
f 27/47/52 31/57/52 32/61/52
f 28/52/53 32/58/53 33/59/53
f 29/54/54 33/59/54 34/60/54
f 30/49/55 34/60/55 35/56/55
f 31/57/56 35/56/56 36/62/56
f 32/61/57 31/57/57 36/63/57
f 33/59/58 32/58/58 36/64/58
f 34/60/59 33/59/59 36/65/59
f 35/56/60 34/60/60 36/66/60
o Icosphere.002
v 3.500000 -4.077147 0.000000
v 4.737356 -0.764738 0.898981
v 3.027382 -0.764738 1.454594
v 1.970533 -0.764738 0.000000
v 3.027382 -0.764738 -1.454594
v 4.737356 -0.764738 -0.898981
v 3.972618 6.475710 1.454594
v 2.262644 6.475710 0.898981
v 2.262644 6.475710 -0.898981
v 3.972618 6.475710 -1.454594
v 5.029467 6.475710 0.000000
v 3.500000 10.102014 0.000000
vt 0.818181 0.000000
vt 0.727272 0.157461
vt 0.909090 0.157461
vt 0.636363 0.000000
vt 0.545454 0.157461
vt 0.090909 0.000000
vt 0.000000 0.157461
vt 0.181818 0.157461
vt 0.272727 0.000000
vt 0.363636 0.157461
vt 0.454545 0.000000
vt 0.636363 0.314921
vt 0.818181 0.314921
vt 0.090909 0.314921
vt 0.272727 0.314921
vt 0.454545 0.314921
vt 1.000000 0.314921
vt 0.727272 0.472382
vt 0.909090 0.472382
vt 0.181818 0.472382
vt 0.363636 0.472382
vt 0.545454 0.472382
vn 0.2895 -0.3499 0.8909
vn 0.9368 -0.3499 0.0000
vn -0.7579 -0.3499 0.5506
vn -0.7579 -0.3499 -0.5506
vn 0.2895 -0.3499 -0.8909
vn 0.9992 -0.0403 0.0000
vn 0.3088 -0.0403 0.9503
vn -0.8084 -0.0403 0.5873
vn -0.8084 -0.0403 -0.5873
vn 0.3088 -0.0403 -0.9503
vn 0.8084 0.0403 0.5873
vn -0.3088 0.0403 0.9503
vn -0.9992 0.0403 0.0000
vn -0.3088 0.0403 -0.9503
vn 0.8084 0.0403 -0.5873
vn 0.7657 0.3229 0.5563
vn -0.2925 0.3229 0.9001
vn -0.9464 0.3229 0.0000
vn -0.2925 0.3229 -0.9001
vn 0.7657 0.3229 -0.5563
usemtl Material.004
s off
f 37/67/61 38/68/61 39/69/61
f 38/68/62 37/70/62 42/71/62
f 37/72/63 39/73/63 40/74/63
f 37/75/64 40/74/64 41/76/64
f 37/77/65 41/76/65 42/71/65
f 38/68/66 42/71/66 47/78/66
f 39/69/67 38/68/67 43/79/67
f 40/74/68 39/73/68 44/80/68
f 41/76/69 40/74/69 45/81/69
f 42/71/70 41/76/70 46/82/70
f 38/68/71 47/78/71 43/79/71
f 39/69/72 43/79/72 44/83/72
f 40/74/73 44/80/73 45/81/73
f 41/76/74 45/81/74 46/82/74
f 42/71/75 46/82/75 47/78/75
f 43/79/76 47/78/76 48/84/76
f 44/83/77 43/79/77 48/85/77
f 45/81/78 44/80/78 48/86/78
f 46/82/79 45/81/79 48/87/79
f 47/78/80 46/82/80 48/88/80
o Icosphere.004
v -7.000000 -4.077147 0.000000
v -5.762644 -0.764738 0.898981
v -7.472619 -0.764738 1.454594
v -8.529467 -0.764738 0.000000
v -7.472619 -0.764738 -1.454594
v -5.762644 -0.764738 -0.898981
v -6.527381 6.475710 1.454594
v -8.237356 6.475710 0.898981
v -8.237356 6.475710 -0.898981
v -6.527381 6.475710 -1.454594
v -5.470533 6.475710 0.000000
v -7.000000 10.102014 0.000000
vt 0.818181 0.000000
vt 0.727272 0.157461
vt 0.909090 0.157461
vt 0.636363 0.000000
vt 0.545454 0.157461
vt 0.090909 0.000000
vt 0.000000 0.157461
vt 0.181818 0.157461
vt 0.272727 0.000000
vt 0.363636 0.157461
vt 0.454545 0.000000
vt 0.636363 0.314921
vt 0.818181 0.314921
vt 0.090909 0.314921
vt 0.272727 0.314921
vt 0.454545 0.314921
vt 1.000000 0.314921
vt 0.727272 0.472382
vt 0.909090 0.472382
vt 0.181818 0.472382
vt 0.363636 0.472382
vt 0.545454 0.472382
vn 0.2895 -0.3499 0.8909
vn 0.9368 -0.3499 0.0000
vn -0.7579 -0.3499 0.5506
vn -0.7579 -0.3499 -0.5506
vn 0.2895 -0.3499 -0.8909
vn 0.9992 -0.0403 0.0000
vn 0.3088 -0.0403 0.9503
vn -0.8084 -0.0403 0.5873
vn -0.8084 -0.0403 -0.5873
vn 0.3088 -0.0403 -0.9503
vn 0.8084 0.0403 0.5873
vn -0.3088 0.0403 0.9503
vn -0.9992 0.0403 0.0000
vn -0.3088 0.0403 -0.9503
vn 0.8084 0.0403 -0.5873
vn 0.7657 0.3229 0.5563
vn -0.2925 0.3229 0.9001
vn -0.9464 0.3229 0.0000
vn -0.2925 0.3229 -0.9001
vn 0.7657 0.3229 -0.5563
usemtl Material.005
s off
f 49/89/81 50/90/81 51/91/81
f 50/90/82 49/92/82 54/93/82
f 49/94/83 51/95/83 52/96/83
f 49/97/84 52/96/84 53/98/84
f 49/99/85 53/98/85 54/93/85
f 50/90/86 54/93/86 59/100/86
f 51/91/87 50/90/87 55/101/87
f 52/96/88 51/95/88 56/102/88
f 53/98/89 52/96/89 57/103/89
f 54/93/90 53/98/90 58/104/90
f 50/90/91 59/100/91 55/101/91
f 51/91/92 55/101/92 56/105/92
f 52/96/93 56/102/93 57/103/93
f 53/98/94 57/103/94 58/104/94
f 54/93/95 58/104/95 59/100/95
f 55/101/96 59/100/96 60/106/96
f 56/105/97 55/101/97 60/107/97
f 57/103/98 56/102/98 60/108/98
f 58/104/99 57/103/99 60/109/99
f 59/100/100 58/104/100 60/110/100
